<?xml version="1.0" encoding="UTF-8"?>
<svg width="131px" height="161px" viewBox="0 0 131 161" version="1.1" xmlns="http://www.w3.org/2000/svg" xmlns:xlink="http://www.w3.org/1999/xlink">
    <!-- Generator: Sketch 43.2 (39069) - http://www.bohemiancoding.com/sketch -->
    <title>Shape</title>
    <desc>Created with Sketch.</desc>
    <defs></defs>
    <g id="Welcome" stroke="none" stroke-width="1" fill="none" fill-rule="evenodd">
        <g id="Desktop-HD" transform="translate(-1011.000000, -1901.000000)" fill-rule="nonzero" fill="#FFFFFF">
            <path d="M1141.21612,1972.05263 L1127.84883,1958.7101 C1127.16442,1958.02696 1126.17257,1957.76278 1125.24488,1958.02429 C1124.31719,1958.28314 1123.59803,1959.01697 1123.36544,1959.95095 L1120.69198,1970.62498 C1120.46206,1971.53494 1120.73208,1972.4956 1121.3951,1973.15739 L1122.17842,1973.93927 L1119.27505,1976.83727 L1117.15499,1974.72114 C1116.10967,1973.67775 1114.42005,1973.67775 1113.37472,1974.72114 C1112.3294,1975.76453 1112.3294,1977.45102 1113.37472,1978.49441 L1115.49478,1980.61053 L1105.80082,1990.28654 C1105.53347,1990.14511 1105.23939,1990.06505 1104.9266,1990.02236 C1098.33652,1983.78072 1088.58375,1980.69326 1080.03403,1978.01941 C1079.29883,1977.78725 1078.56363,1977.55776 1077.83645,1977.33094 L1077.83645,1917.90062 L1080.50991,1917.90062 C1081.98565,1917.90062 1083.18336,1916.7078 1083.18336,1915.23211 L1083.18336,1904.55808 C1083.18336,1903.0824 1081.98565,1901.88958 1080.50991,1901.88958 L1043.0815,1901.88958 C1041.60575,1901.88958 1040.40804,1903.0824 1040.40804,1904.55808 L1040.40804,1915.23211 C1040.40804,1916.7078 1041.60575,1917.90062 1043.0815,1917.90062 L1045.75495,1917.90062 L1045.75495,1977.33094 C1045.0251,1977.55776 1044.29524,1977.78725 1043.55737,1978.01675 C1035.01033,1980.69326 1025.25488,1983.77805 1018.6648,1990.02236 C1017.40561,1990.19581 1016.43247,1991.20718 1016.37098,1992.49873 C1013.08797,1996.5522 1011,2001.73444 1011,2008.62986 C1011,2029.05728 1029.04851,2034.70384 1043.5547,2039.2403 C1044.29257,2039.47246 1045.0251,2039.70195 1045.75495,2039.92878 L1045.75495,2044.61734 L1028.16093,2057.162 C1027.21452,2057.83179 1026.8135,2059.04329 1027.16907,2060.14806 C1027.52197,2061.25015 1028.55125,2062 1029.71421,2062 L1093.93066,2062 C1095.40641,2062 1096.60412,2060.80718 1096.60412,2059.33149 C1096.60412,2058.28811 1096.00527,2057.38615 1095.13372,2056.94585 L1077.83645,2044.61734 L1077.83645,2039.92878 C1078.5663,2039.70195 1079.3015,2039.47246 1080.03938,2039.2403 C1094.54021,2034.70384 1112.5914,2029.05461 1112.5914,2008.62986 C1112.5914,2002.96462 1111.16912,1998.47085 1108.85391,1994.78564 L1119.27505,1984.3838 L1121.3951,1986.49993 C1121.91642,1987.02029 1122.60083,1987.2818 1123.28523,1987.2818 C1123.96964,1987.2818 1124.65404,1987.02029 1125.17537,1986.49993 C1126.22069,1985.45654 1126.22069,1983.77005 1125.17537,1982.72666 L1123.05532,1980.61053 L1125.95869,1977.71254 L1126.74201,1978.49441 C1127.2473,1978.99876 1127.9317,1979.27628 1128.63215,1979.27628 L1129.27913,1979.19623 L1139.97296,1976.52772 C1140.90867,1976.29556 1141.64387,1975.57773 1141.90319,1974.65176 C1142.15985,1973.72579 1141.89785,1972.7331 1141.21612,1972.05263 L1141.21612,1972.05263 Z M1045.75495,1907.22659 L1077.83645,1907.22659 L1077.83645,1912.5636 L1045.75495,1912.5636 L1045.75495,1907.22659 Z M1045.1561,1983.11359 C1046.53828,1982.67863 1047.90709,1982.249 1049.25451,1981.81403 C1050.35597,1981.45645 1051.10187,1980.43441 1051.10187,1979.27628 L1051.10187,1917.90062 L1072.48953,1917.90062 L1072.48953,1979.27628 C1072.48953,1980.43441 1073.23543,1981.45645 1074.33689,1981.81403 C1075.68431,1982.249 1077.05312,1982.67863 1078.4353,1983.11359 C1084.81417,1985.10697 1091.03531,1987.06032 1096.05874,1989.95031 L1027.53266,1989.95031 C1032.55609,1987.06032 1038.77723,1985.10697 1045.1561,1983.11359 L1045.1561,1983.11359 Z M1038.05807,2056.66299 L1049.28392,2048.65746 L1074.30748,2048.65746 L1085.53333,2056.66299 L1038.05807,2056.66299 L1038.05807,2056.66299 Z M1107.24449,2008.62986 C1107.24449,2025.13457 1093.25428,2029.51359 1078.44065,2034.14879 C1077.0558,2034.58109 1075.68431,2035.00805 1074.33689,2035.44569 C1073.23543,2035.80327 1072.48953,2036.8253 1072.48953,2037.98344 L1072.48953,2043.32045 L1051.10187,2043.32045 L1051.10187,2037.98344 C1051.10187,2036.8253 1050.35597,2035.80327 1049.25451,2035.44569 C1047.90709,2035.01072 1046.53293,2034.58109 1045.15342,2034.14879 C1030.33979,2029.51359 1016.34692,2025.13457 1016.34692,2008.62986 C1016.34692,2002.87656 1018.07397,1998.61762 1020.91853,1995.28732 L1100.79076,1995.28732 L1067.92594,2028.09128 C1066.88062,2029.13467 1066.88062,2030.82116 1067.92594,2031.86455 C1068.44726,2032.38491 1069.13167,2032.64642 1069.81607,2032.64642 C1070.50048,2032.64642 1071.18488,2032.38491 1071.70621,2031.86455 L1104.97739,1998.65498 C1106.41571,2001.39554 1107.24449,2004.65378 1107.24449,2008.62986 L1107.24449,2008.62986 Z M1129.4529,1973.65374 L1126.24475,1970.45153 L1127.4077,1965.81633 L1134.0967,1972.49294 L1129.4529,1973.65374 L1129.4529,1973.65374 Z" id="Shape"></path>
        </g>
    </g>
</svg>