<svg id="Layer_1" data-name="Layer 1" xmlns="http://www.w3.org/2000/svg" xmlns:xlink="http://www.w3.org/1999/xlink" viewBox="0 0 811.38 456.54"><defs><style>.cls-1{fill:url(#linear-gradient);}.cls-2{fill:url(#linear-gradient-2);}.cls-3{fill:#f7eb0b;}.cls-4{fill:#f71403;}.cls-5{fill:#fff;}</style><linearGradient id="linear-gradient" x1="142.69" y1="-61.41" x2="71" y2="365.19" gradientUnits="userSpaceOnUse"><stop offset="0.07" stop-color="#e8de23"/><stop offset="0.23" stop-color="#b7df2d"/><stop offset="0.4" stop-color="#8ddf35"/><stop offset="0.57" stop-color="#6bdf3c"/><stop offset="0.73" stop-color="#53e041"/><stop offset="0.88" stop-color="#45e044"/><stop offset="1" stop-color="#40e045"/></linearGradient><linearGradient id="linear-gradient-2" x1="171.39" y1="21.41" x2="99.69" y2="448.01" xlink:href="#linear-gradient"/></defs><title>logo-white</title><path class="cls-1" d="M15.25,296.44c12.11-8.5,33.53-14.63,58.36-15.43q4.45-.15,9-0.07c28.62,0.44,53.6,7.81,66.82,17.79-12.11,8.5-33.52,14.63-58.35,15.43q-4.45.15-9,.07C53.45,313.79,28.47,306.43,15.25,296.44Z" transform="translate(-15.25 -69.37)"/><path class="cls-2" d="M123.68,343.44c-13.69,8.21-27.63,12.64-37.83,13q-1.47.05-2.83,0c4.47-9.3,15.61-20.75,30.64-29.7,13.69-8.21,27.63-12.64,37.83-13q1.47,0,2.83,0C149.85,323,138.72,334.49,123.68,343.44Z" transform="translate(-15.25 -69.37)"/><path class="cls-3" d="M75.62,241.22C48.13,215.58,30.4,186.41,26.71,165.1c21.51,2.24,51.82,18,79.25,43.66s45.22,54.81,48.91,76.12C133.36,282.64,103.05,266.92,75.62,241.22Z" transform="translate(-15.25 -69.37)"/><path class="cls-4" d="M169.37,278c-16.39-19.82-28.74-58.59-30.19-103.4s8.17-84.31,23.2-105.19c16.39,19.83,28.74,58.59,30.2,103.4S184.4,257.08,169.37,278Z" transform="translate(-15.25 -69.37)"/><path class="cls-5" d="M158.8,361.84q0.22-11.14.11-20.13a150.49,150.49,0,0,1,.68-17,83.23,83.23,0,0,1,3.07-15.58,66.88,66.88,0,0,1,7.51-16,72.28,72.28,0,0,1,4.21-5.92,26.44,26.44,0,0,1,4.89-4.78,20.79,20.79,0,0,1,6.49-3.19,32.15,32.15,0,0,1,9.21-1.14,63.22,63.22,0,0,1,15.93,1.59,20.73,20.73,0,0,1,12.74,8.64l-5.23-2,2.28,6.37-2.39.23A7.55,7.55,0,0,0,217,294l1.82,1.82q-1.36,1.59-1.93,2.16a1.55,1.55,0,0,1-.91.57,2.8,2.8,0,0,1-1.14-.45,11.41,11.41,0,0,0-2.84-.91l3.41,4.55-8.87-4.09a16.68,16.68,0,0,0-5.35-2.16,27.06,27.06,0,0,0-6.48.11q-3.87.46-5.12,1.59a18.31,18.31,0,0,0-2.84,3.64,46.55,46.55,0,0,0-5.92,13.2,78.39,78.39,0,0,0-2.39,14.33,152.13,152.13,0,0,0-.34,15.7q0.22,8.19.45,17.29l16.15-.91a14.36,14.36,0,0,1,3.75-.34c1,0.08,1.94.19,2.84,0.34s1.9,0.34,3,.57a34.91,34.91,0,0,0,4.1.57l-3,3.64,2.73,1.59a5.67,5.67,0,0,1,1.14,2,6.84,6.84,0,0,1,.23,1.59,1.86,1.86,0,0,1-.45,1.36,0.64,0.64,0,0,0-.23.34,0.62,0.62,0,0,1-.23.34l-1.82,3.64L179.73,380a18.35,18.35,0,0,0-.79,3.87c-0.08,1.07-.11,2.13-0.11,3.19s0,2.2.11,3.41,0.11,2.81.11,4.78v22.18a93.93,93.93,0,0,0,2.5,21q1.36,5.46,2.5,12.51t2.16,14.68q1,7.62,1.71,14.9t1.14,13l-2,2a8.71,8.71,0,0,0-.68,2.62,5,5,0,0,1-1.14,2.39l-3.87-2.73q-0.46.68-1.36,1.82t-1.37,1.59a4.7,4.7,0,0,0-2.16.57c-0.23.23-.5,0.19-0.8-0.11L164.71,446q-0.91-3-1-11t0-17.75q0.11-9.67.11-19a125.53,125.53,0,0,0-.68-14.79q-5-.45-8.76-0.57a32.68,32.68,0,0,1-8.31-1.48l-1.59-.46a3.54,3.54,0,0,0-2.5-.68l2-5-5.23-1.36Z" transform="translate(-15.25 -69.37)"/><path class="cls-5" d="M226.36,338l0.45,0.46,2.73-3.41,3,1.82c0.61,0.31.83,0.65,0.68,1s0.68,0.27,2.5-.34c0.45-.15.87-0.3,1.25-0.46l1.71-.68q0.69,4.32.91,6.14t0.34,3.07c0.08,0.84.11,1.71,0.11,2.62s0.08,2.5.23,4.78a11,11,0,0,0,.57,3.64c0.23,0.31.64,0.83,1.25,1.59l1.14-3.64q3.41-3.18,5.35-5.23a32.39,32.39,0,0,1,3.87-3.53c1.29-1,2.73-2,4.32-3.07s3.83-2.35,6.71-3.87a33.39,33.39,0,0,1,7.73-3.07,26.16,26.16,0,0,1,6.83-.68,62.51,62.51,0,0,1,7.17.68l8.3,1.25a16.66,16.66,0,0,0-1.93,3.3c-0.08.38,0,.53,0.34,0.45a4.29,4.29,0,0,1,1-.11q0.57,0,.34,1.82a24.48,24.48,0,0,1-1.37,5.12,10.11,10.11,0,0,1-3,3.3l-1.14.68c-0.15.15-.08,0.23,0.23,0.23s0.34,0,.11.11a18.82,18.82,0,0,1-2.39.34q-2,.23-7.28.45a21.09,21.09,0,0,0-9,3.19,43.85,43.85,0,0,0-8.42,6.83,82.27,82.27,0,0,0-7.39,8.76,102.08,102.08,0,0,0-5.8,8.76q-2.39,4.09-3.75,6.94a13,13,0,0,0-1.37,3.53l-3.18,1.37-1.14-3.64a22,22,0,0,0-.91,5.92q-0.23,4.09-.34,9.21t0,10.24q0.11,5.12.11,8.76,0,1.83-.11,3.76a20.5,20.5,0,0,1-.57,3.75,15,15,0,0,1-1.14,3.41q-0.68,1.37-1.82,3.19a9.09,9.09,0,0,1-1.82-.91,21.33,21.33,0,0,1-1.14-3.87,3.19,3.19,0,0,0-1.14.57q0,0.11.23,0.11t0,0.11c-0.15.08-.68,0.26-1.59,0.57l-4.78,2.5q-0.23-6.83-.34-11.94t-0.23-10.12q-0.11-5-.11-10.35V390.74a106.65,106.65,0,0,1,1.14-13.08,84.89,84.89,0,0,0,.91-13.08q0-7.73.34-13.54T226.36,338Z" transform="translate(-15.25 -69.37)"/><path class="cls-5" d="M377.43,406.44a61.21,61.21,0,0,0-3.64,5.69,56.45,56.45,0,0,1-3.87,5.91,60.45,60.45,0,0,1-7.73,8.76,30.68,30.68,0,0,1-8.65,5.57,37.86,37.86,0,0,1-10.47,2.73,109.25,109.25,0,0,1-13,.68,59.65,59.65,0,0,1-9.9-.68,29.72,29.72,0,0,1-7.05-2,19,19,0,0,1-5.46-3.64,42.55,42.55,0,0,1-4.89-5.69,28.46,28.46,0,0,1-4.32-6.94,26.61,26.61,0,0,1-1.82-6.83,48.67,48.67,0,0,1-.34-7.62q0.11-4.09.11-9.55,0-4.32-.23-7.74a32.73,32.73,0,0,1,.23-6.71,28.88,28.88,0,0,1,1.94-6.94,42.8,42.8,0,0,1,4.89-8.42,51.93,51.93,0,0,1,9-8.64,93.57,93.57,0,0,1,12.17-8,148.69,148.69,0,0,1,13.54-6.6A133.17,133.17,0,0,1,350.82,335a51,51,0,0,1,10-2.28,61.38,61.38,0,0,1,8.19-.34,64.35,64.35,0,0,1,7.62.68q3.76,0.57,8.53,1l-0.91,6.14q-0.23,1.37-.45,2.39a6.48,6.48,0,0,0,.23,2.84c0.76-.76,1.33-1.29,1.71-1.59a7.09,7.09,0,0,1,2.39-.91q0.68,5.46,1,8.87t0.57,6.6q0.22,3.19.23,6.83t-0.23,9.1a60,60,0,0,0,.34,9.67,68.29,68.29,0,0,0,1.82,9.9,58,58,0,0,0,3.18,9.1,26.58,26.58,0,0,0,4.66,7.28,15.66,15.66,0,0,0,8.42,5.46q4.78,1.15,12.06,3a28,28,0,0,1,3.53,1.14,3.53,3.53,0,0,1,1.36.91c0.23,0.31.45,0.65,0.68,1a5.94,5.94,0,0,0,1.71,1.48,1.36,1.36,0,0,1,.68.68,13.57,13.57,0,0,1,2,.23l-3.87-.23,1.14,5.23a20.77,20.77,0,0,0-4.66,2.39,13.49,13.49,0,0,1-2.39,1.48,16.49,16.49,0,0,1-4,1.37,16.86,16.86,0,0,1-4.89.23q-8.88-.68-14.22-4a34.17,34.17,0,0,1-8.76-7.51,53,53,0,0,1-5.8-8.76A41.68,41.68,0,0,0,377.43,406.44Zm-6.6-51.65,0.46-4.55a20.57,20.57,0,0,0-7.74.11,81.24,81.24,0,0,0-9.44,2.28,93.05,93.05,0,0,0-9.44,3.41,67.12,67.12,0,0,0-7.28,3.53,22.19,22.19,0,0,0-4.44,3,26.74,26.74,0,0,1-4.66,3.19q-3.41,1.82-5.69,3.19a11.08,11.08,0,0,0-3.53,3.18,10.65,10.65,0,0,0-1.59,4.89,76,76,0,0,0-.34,8.08q0,3.19-.34,7.17t-0.34,8.07a59.33,59.33,0,0,0,.45,7.62,11.26,11.26,0,0,0,2,5.57q2,2.73,6.83,4.32a23.54,23.54,0,0,0,10.7.79,31.1,31.1,0,0,0,11.94-4.44q6-3.64,10.35-11.38A87,87,0,0,0,366.85,383a81.14,81.14,0,0,0,2.84-21.39q0-1.59.11-3.53A6.53,6.53,0,0,1,370.83,354.79Z" transform="translate(-15.25 -69.37)"/><path class="cls-5" d="M402.27,342.9a15.73,15.73,0,0,1,2.5-.91,2.26,2.26,0,0,0,1.59-2.5,2.24,2.24,0,0,0-.11-1,0.14,0.14,0,0,0-.23,0,0.46,0.46,0,0,1-.34.11c-0.15,0-.23-0.23-0.23-0.68a1.29,1.29,0,0,0-.23-1,0.38,0.38,0,0,0-.45.11l0.45-.45q1.6-1.59,6.83-1.82c3.49-.15,30.56,5.22,35.34,5.52s9.9,0.8,15.36,1.48,10.73,1.36,15.82,2,9.7,1.29,13.88,1.82,7.32,0.88,9.44,1a73.09,73.09,0,0,0,8.19.34q2.5-.11,4.66-0.11t5.46,0.34q3.29,0.34,10.58,1.25l-1.59,3.41,6.14,0.91-1.82,1.59-0.91,1.59c-0.61,1.22-1.1,2.24-1.48,3.07L530,361.5a11.56,11.56,0,0,1-1.48,2.39,33.89,33.89,0,0,1-2.5,2.73q-1.36,1.14-3.64,2.84t-4.89,3.41q-2.62,1.71-5.23,3.19L508,378.45a45.82,45.82,0,0,0-6.37,4.55q-4.55,3.64-9.55,7.73t-8.87,7.85a31.19,31.19,0,0,0-4.32,4.66l24.34,3,6.15,2.39a7.89,7.89,0,0,0,3.41.68,5.71,5.71,0,0,0,3-1.37q1.59-1.25,5.23-3.75,8-5.69,12.4-9l6.71-5a16.15,16.15,0,0,1,3.18-2,3.7,3.7,0,0,1,2-.11c0.76,0.15,1.86.34,3.3,0.57a47.18,47.18,0,0,0,6.71.34l-3,3.87,7.28,0.45a15.87,15.87,0,0,1-1.82,1.93,5.6,5.6,0,0,0-1.6,1.94c-0.15.31-.38,0.84-0.68,1.59l-1.37,3a24.51,24.51,0,0,1-4.89,5.35q-3.53,3.07-7.51,5.91t-7.62,5.35q-3.64,2.51-5.23,3.41L532.59,434a39.5,39.5,0,0,1,.8,8.08q0.11,5.34,0,11.26t-0.57,11.49q-0.46,5.57-.91,8.53a33.68,33.68,0,0,1-2,7.51q-1.83,5-4.44,10.47T520,501.76a36,36,0,0,1-5.35,7.51,12.37,12.37,0,0,1-2.61,2.39,17.27,17.27,0,0,0-2.84,2.39q-4.32,3.87-7.39,6.14a30.37,30.37,0,0,1-9.44,4.1,51.89,51.89,0,0,1-7.51,1.36,39.82,39.82,0,0,1-8,.11,29.8,29.8,0,0,1-7.39-1.59,23.43,23.43,0,0,1-6.26-3.3,13,13,0,0,1-4.21-5.23,22.05,22.05,0,0,1-1.59-6.6,43.62,43.62,0,0,1,0-7.74q0.34-4.09.34-8.87,0-5.24.11-8.53a28.83,28.83,0,0,1,.8-6,27.94,27.94,0,0,1,1.93-5.34,47.24,47.24,0,0,1,3.76-6.26,183,183,0,0,1,11.72-15.7q5.57-6.6,10-11.26t7.28-7.17a31.67,31.67,0,0,0,3.53-3.41q-6.6-1.59-9.56-2.39a33.33,33.33,0,0,0-5.23-1,41,41,0,0,0-5.46-.11q-3.19.11-10.46,0.11a62.22,62.22,0,0,1-9.44-.68q-4.44-.68-9.67-1.14l-0.45-11.38q0-1.59,2.84-4.44t6.37-5.91q3.52-3.07,6.83-5.57t4.44-3.41a55.3,55.3,0,0,0,5.57-4.32q3.76-3.18,8-6.94l8.19-7.28q4-3.52,6.48-5.58L403,354.27l3.19-5-6.6-1.59Zm114.63,88.79a14.14,14.14,0,0,0-4.21,2q-2.39,1.59-4.66,3.41t-4.21,3.64q-1.94,1.82-3.07,3a118.92,118.92,0,0,0-13.2,16,167,167,0,0,0-10.92,17.63,22.56,22.56,0,0,0-2.5,10.24,20.93,20.93,0,0,0,2.16,10.69,9.57,9.57,0,0,0,7.73,5.23q5.34,0.68,14.67-6.14l4.55-3.41a19.93,19.93,0,0,0,3.19-3,20.36,20.36,0,0,0,2.5-3.75,60.18,60.18,0,0,0,2.5-5.58q0.68-1.59,1.82-4.44t2.28-5.8q1.13-3,2-5.69a30,30,0,0,0,1.14-4.09q0.45-6.6.23-14a40.24,40.24,0,0,0-2-12.4v-3.64Z" transform="translate(-15.25 -69.37)"/><path class="cls-5" d="M548.29,348.19a15.73,15.73,0,0,1,2.5-.91,2.26,2.26,0,0,0,1.59-2.5,2.24,2.24,0,0,0-.11-1,0.14,0.14,0,0,0-.23,0,0.46,0.46,0,0,1-.34.11c-0.15,0-.23-0.23-0.23-0.68a1.29,1.29,0,0,0-.23-1,0.38,0.38,0,0,0-.45.11l0.45-.45q1.6-1.59,6.83-1.82a119.44,119.44,0,0,1,12.4.23q7.17,0.46,15.36,1.48t15.82,2q7.62,1,13.88,1.82t9.44,1a73.09,73.09,0,0,0,8.19.34q2.5-.11,4.66-0.11t5.46,0.34q3.29,0.34,10.58,1.25l-1.59,3.41,6.14,0.91-1.82,1.59-0.91,1.59c-0.61,1.22-1.1,2.24-1.48,3.07l-1.14,2.5a11.56,11.56,0,0,1-1.48,2.39,33.89,33.89,0,0,1-2.5,2.73q-1.36,1.14-3.64,2.84t-4.89,3.41q-2.62,1.71-5.23,3.19l-4.21,2.39a45.82,45.82,0,0,0-6.37,4.55q-4.55,3.64-9.55,7.73t-8.87,7.85a31.19,31.19,0,0,0-4.32,4.66l24.34,3,6.15,2.39a7.89,7.89,0,0,0,3.41.68,5.71,5.71,0,0,0,3-1.37q1.59-1.25,5.23-3.75,8-5.69,12.4-9l6.71-5a16.15,16.15,0,0,1,3.18-2,3.7,3.7,0,0,1,2-.11c0.76,0.15,1.86.34,3.3,0.57a47.18,47.18,0,0,0,6.71.34l-3,3.87,7.28,0.45a15.87,15.87,0,0,1-1.82,1.93,5.6,5.6,0,0,0-1.6,1.94c-0.15.31-.38,0.84-0.68,1.59l-1.37,3A24.51,24.51,0,0,1,672.4,407q-3.53,3.07-7.51,5.91t-7.62,5.35q-3.64,2.51-5.23,3.41L655.68,434a39.5,39.5,0,0,1,.8,8.08q0.11,5.34,0,11.26t-0.57,11.49q-0.46,5.57-.91,8.53a33.68,33.68,0,0,1-2,7.51q-1.83,5-4.44,10.47T643,501.76a36,36,0,0,1-5.35,7.51,12.37,12.37,0,0,1-2.61,2.39,17.27,17.27,0,0,0-2.84,2.39q-4.32,3.87-7.39,6.14a30.37,30.37,0,0,1-9.44,4.1,51.89,51.89,0,0,1-7.51,1.36,39.82,39.82,0,0,1-8,.11,29.8,29.8,0,0,1-7.39-1.59,23.43,23.43,0,0,1-6.26-3.3,13,13,0,0,1-4.21-5.23,22.05,22.05,0,0,1-1.59-6.6,43.62,43.62,0,0,1,0-7.74q0.34-4.09.34-8.87,0-5.24.11-8.53a28.83,28.83,0,0,1,.8-6,27.94,27.94,0,0,1,1.93-5.34,47.24,47.24,0,0,1,3.76-6.26,183,183,0,0,1,11.72-15.7q5.57-6.6,10-11.26t7.28-7.17a31.67,31.67,0,0,0,3.53-3.41q-6.6-1.59-9.56-2.39a33.33,33.33,0,0,0-5.23-1,41,41,0,0,0-5.46-.11q-3.19.11-10.46,0.11a62.22,62.22,0,0,1-9.44-.68q-4.44-.68-9.67-1.14l-0.45-11.38q0-1.59,2.84-4.44t6.37-5.91q3.52-3.07,6.83-5.57t4.44-3.41a55.3,55.3,0,0,0,5.57-4.32q3.76-3.18,8-6.94l8.19-7.28q4-3.52,6.48-5.58L549,359.57l3.19-5-6.6-1.59ZM640,431.69a14.14,14.14,0,0,0-4.21,2q-2.39,1.59-4.66,3.41t-4.21,3.64q-1.94,1.82-3.07,3a118.92,118.92,0,0,0-13.2,16,167,167,0,0,0-10.92,17.63,22.56,22.56,0,0,0-2.5,10.24,20.93,20.93,0,0,0,2.16,10.69,9.57,9.57,0,0,0,7.73,5.23q5.34,0.68,14.67-6.14l4.55-3.41a19.93,19.93,0,0,0,3.19-3,20.36,20.36,0,0,0,2.5-3.75,60.18,60.18,0,0,0,2.5-5.58q0.68-1.59,1.82-4.44t2.28-5.8q1.13-3,2-5.69a30,30,0,0,0,1.14-4.09q0.45-6.6.23-14a40.24,40.24,0,0,0-2-12.4v-3.64Z" transform="translate(-15.25 -69.37)"/><path class="cls-5" d="M688.84,367.3Q690,354.56,690,344.66t-0.34-18.43q-0.34-8.53-.68-16.49a124.64,124.64,0,0,1,.45-16.72,159.17,159.17,0,0,1,3.07-19.23,198.07,198.07,0,0,1,7.05-23.89,53.82,53.82,0,0,1,5-10.81,64.35,64.35,0,0,1,7.74-10.58,50.85,50.85,0,0,1,9-8,16.31,16.31,0,0,1,9.21-3.19,16.9,16.9,0,0,1,3,.34q1.82,0.34,3.75.8a34.67,34.67,0,0,1,3.53,1,6.26,6.26,0,0,1,2.28,1.25,23.94,23.94,0,0,1,4,5.23,72.88,72.88,0,0,1,4.55,8.76A86.74,86.74,0,0,1,755.27,245a42.12,42.12,0,0,1,1.82,9.67q0.22,9.1-.11,16.38t-1.25,13.88q-0.91,6.6-2.39,13.08T750,311.79a110.52,110.52,0,0,1-14.79,34.13,134,134,0,0,1-24.34,28,9.9,9.9,0,0,0-3.3,9.33,40.73,40.73,0,0,0,2.84,10.46,12,12,0,0,0,5.12,5.92,19,19,0,0,0,6.94,2.28,21,21,0,0,0,6.94-.23,36.59,36.59,0,0,0,5.12-1.36,52.74,52.74,0,0,0,7.73-3.76c1.52-1,2.58-1.71,3.18-2.16a1.61,1.61,0,0,1,1.48-.45l2.84,1.14a6.21,6.21,0,0,0,2.5.8c0.31-.08,1.44-0.26,3.41-0.57l0.46,5.46,0.45,0.23c1.36,0.31,2.24.15,2.61-.46a1.89,1.89,0,0,1,.8-0.91l-2.73,4.1q-1.6,3.19-2.28,4.66a10,10,0,0,1-1.48,2.39,7.75,7.75,0,0,1-2.39,1.71q-1.59.8-5,2.39-4.09,1.83-6.26,2.73a15.35,15.35,0,0,1-4.44,1.14,41.77,41.77,0,0,1-5.57.11q-3.3-.11-10.12-0.11h-7.05a16.22,16.22,0,0,1-4.89-.68,10.28,10.28,0,0,1-4-2.39,37.81,37.81,0,0,1-4.32-5.12,36.93,36.93,0,0,1-5-8.19,25.53,25.53,0,0,1-1.71-5.91,14.37,14.37,0,0,1,0-4.44,19.61,19.61,0,0,0,.34-3.3l-5,1.82a15.5,15.5,0,0,0-2.28,2q-1.82,1.83-4.1,4.21t-4.32,4.66q-2,2.28-2.73,3.18L672,400.06l-5.91-.45a43.05,43.05,0,0,0-.11-7.05,11.87,11.87,0,0,1,.11-4.55,19.06,19.06,0,0,1,3.64-4.66q3-3.07,6.6-6.26t7.17-5.92Q687,368.44,688.84,367.3ZM708,350.92l8.42-9.56q1.82-2.27,3.87-4.89a48.6,48.6,0,0,0,3.87-5.8q1.82-3.64,3.07-6.71t2.28-6.37q1-3.3,1.93-6.71t2-7.74q1.36-4.78,2.16-8.64t1.25-7.62q0.45-3.75.68-7.85t0.23-9.78q0-8.19-.34-11.72a23.71,23.71,0,0,0-1.14-5.69,20,20,0,0,0-2.39-4.44,42.58,42.58,0,0,1-3.87-8l-10,8.65q-1.59,1.82-3.41,6.94t-3.53,11.15q-1.71,6-3.07,11.49a62.19,62.19,0,0,0-1.59,7.74,99.56,99.56,0,0,0-1.14,14Q707,308.15,707,317.7t0.34,18.54Q707.72,345.23,708,350.92Z" transform="translate(-15.25 -69.37)"/><path class="cls-5" d="M822.42,456.37a12.5,12.5,0,0,0-3.53.34c-0.68.23-1.29,0.45-1.82,0.68s-1.1.45-1.71,0.68a13.67,13.67,0,0,1-3,.57q-3.19.23-7.51,0.11t-8.88-.57q-4.55-.45-8.76-1.14a36.18,36.18,0,0,1-7.17-1.82,31.94,31.94,0,0,1-13.42-9.1,76,76,0,0,1-9.1-13.65,38.91,38.91,0,0,1-2.73-5.57,13.48,13.48,0,0,1-.8-3.53,21.54,21.54,0,0,1,.11-3.75q0.22-2.16.23-6.26,0-4.32-.11-6.37c-0.08-1.36-.11-2.5-0.11-3.41a28.63,28.63,0,0,1,.23-3.3q0.23-1.93.91-6.49a26.54,26.54,0,0,1,2.5-8.42,62.35,62.35,0,0,1,4.66-8.19,57.8,57.8,0,0,1,5.46-6.94q2.84-3.07,4.89-4.89,4.09-3.64,7.39-6a21.7,21.7,0,0,1,7.05-3.41,25.48,25.48,0,0,1,8.53-.68,82.36,82.36,0,0,1,11.83,1.93A53.85,53.85,0,0,1,819.57,361a12.83,12.83,0,0,1,5.57,4.89,13,13,0,0,1,1.48,6.83q-0.12,4-.34,9.67-0.23,4.1-.34,6.37a19.73,19.73,0,0,1-.57,4,18.83,18.83,0,0,1-1.37,3.53q-0.91,1.82-2.73,4.78-4.32,7.05-8.87,10.24a24.45,24.45,0,0,1-10.47,4.09,53.76,53.76,0,0,1-13.65.11q-7.74-.8-18.43-1.93l17.52,24.8a27.62,27.62,0,0,0,8.53,2.39,77.34,77.34,0,0,0,9.44.57q3.41,0,5.57.11t4.21,0.34q2,0.23,4.1.57t5,0.8l-0.68,4.55a17.79,17.79,0,0,1-.23,4,0.74,0.74,0,0,1-.45.57,0.64,0.64,0,0,0-.45.45A12.52,12.52,0,0,0,822.42,456.37Zm-48.69-61.43c2.73,0.61,4.81,1.06,6.26,1.37s2.77,0.57,4,.8a30.57,30.57,0,0,0,3.87.45q2,0.11,5.91.11,7,0,9.44-2.39t4.44-7.85q1.36-3.87,1.94-6.26a6,6,0,0,0-.11-3.87,4.7,4.7,0,0,0-2.84-2.28,50.88,50.88,0,0,0-6.49-1.71,15.07,15.07,0,0,0-9,.91,24.45,24.45,0,0,0-7.62,5.23,38.61,38.61,0,0,0-5.91,7.62A49.82,49.82,0,0,0,773.73,394.94Z" transform="translate(-15.25 -69.37)"/></svg>